<svg version="1.0" xmlns="http://www.w3.org/2000/svg"
 width="74.000000pt" height="36.000000pt" viewBox="0 0 74.000000 36.000000"
 preserveAspectRatio="xMidYMid meet">
<g transform="translate(0.000000,36.000000) scale(0.100000,-0.100000)"
fill="#000000" stroke="none">
<path d="M479 241 c-66 -67 -8 -163 87 -145 32 6 34 8 34 50 0 42 -1 44 -30
44 -32 0 -40 -14 -15 -24 27 -10 17 -36 -13 -36 -35 0 -52 16 -52 52 0 33 39
63 70 53 24 -8 29 19 4 29 -32 12 -56 5 -85 -23z"/>
<path d="M140 181 l0 -81 48 0 c26 0 53 5 60 12 17 17 15 58 -3 64 -12 5 -13
10 -4 20 6 7 9 23 7 36 -3 20 -9 23 -55 26 l-53 3 0 -80z m69 50 c19 -12 6
-41 -19 -41 -15 0 -20 7 -20 25 0 26 14 31 39 16z m17 -73 c8 -12 -24 -40 -41
-35 -5 2 -11 13 -13 25 -3 18 2 22 22 22 14 0 28 -5 32 -12z"/>
<path d="M336 252 c-12 -20 -56 -146 -52 -150 14 -13 36 12 51 58 9 28 20 48
24 45 3 -4 13 -27 22 -53 11 -34 22 -48 37 -50 20 -3 19 -1 -10 77 -23 60 -35
81 -49 81 -10 0 -20 -4 -23 -8z"/>
</g>
</svg>
